<svg xmlns="http://www.w3.org/2000/svg" xmlns:xlink="http://www.w3.org/1999/xlink" viewBox="0,0,256,256" width="48px" height="48px" fill-rule="nonzero"><defs><linearGradient x1="36.25" y1="38.043" x2="36.25" y2="23.006" gradientUnits="userSpaceOnUse" id="color-1"><stop offset="0" stop-color="#957eba"></stop><stop offset="1" stop-color="#9332bf"></stop></linearGradient><linearGradient x1="33.024" y1="35.709" x2="10.282" y2="12.967" gradientUnits="userSpaceOnUse" id="color-2"><stop offset="0" stop-color="#957eba"></stop><stop offset="1" stop-color="#957eba"></stop></linearGradient><linearGradient x1="33.436" y1="21.564" x2="38.157" y2="16.843" gradientUnits="userSpaceOnUse" id="color-3"><stop offset="0" stop-color="#957eba"></stop><stop offset="1" stop-color="#957eba"></stop></linearGradient></defs><g fill="none" fill-rule="nonzero" stroke="none" stroke-width="1" stroke-linecap="butt" stroke-linejoin="miter" stroke-miterlimit="10" stroke-dasharray="" stroke-dashoffset="0" font-family="none" font-weight="none" font-size="none" text-anchor="none" style="mix-blend-mode: normal"><g transform="scale(5.33333,5.33333)"><path d="M44.516,25.668l-11.848,11.848c-0.645,0.645 -1.69,0.645 -2.335,0l-2.349,-2.349c-0.645,-0.645 -0.645,-1.69 0,-2.335l11.849,-11.849c0.645,-0.645 1.69,-0.645 2.335,0l2.349,2.349c0.644,0.645 0.644,1.691 -0.001,2.336z" fill="url(#color-1)"></path><path d="M4.5,28h36.5l-2.25,-8h-34.25c-0.828,0 -1.5,0.672 -1.5,1.5v5c0,0.828 0.672,1.5 1.5,1.5z" fill="url(#color-2)"></path><path d="M44.516,23.332l-12.849,-12.848c-0.645,-0.645 -1.69,-0.645 -2.335,0l-2.349,2.349c-0.645,0.645 -0.645,1.69 0,2.335l12.833,12.832h2.368l2.333,-2.333c0.644,-0.644 0.644,-1.69 -0.001,-2.335z" fill="url(#color-3)"></path></g></g></svg>