<?xml version="1.0" encoding="UTF-8"?><svg id="a" xmlns="http://www.w3.org/2000/svg" width="458.9" height="674.4" viewBox="0 0 458.9 674.4"><path d="M449.2,399c1.3,22.7,1.1,58.9-2,80.8-3.1,22-8.1,43.2-16,63.9-4.3,11.4-9.5,21.7-14.8,32.5s-4,6.1-5.9,9.3c-6.4,10.8-14,20.2-22.3,29.6-13.9,15.7-30.7,28.8-48.8,39.2s-48.9,20-74.9,20.1c-36.2,0-74.1-8.1-105.5-26.1-18.1-10.4-34.2-22.9-48.3-38.2-11.9-13-22.4-26.5-31.7-41.4s-11.8-19.7-16.5-30.4-11.2-25.9-14.5-40-7-30.9-8.3-46.8l-1.7-21.2-2.2-1.2c.2-15.1,0-30.4-.4-45.8,0-3.6,1.3-16.9,3-19s2-.9,2.5-.4c4.3,13.9,9,27.8,14,41.5,17.1,44.4,48.4,83.2,94.1,99.2,9.8,1.8,17.5,6.2,23.2,13.2l8.1,15c18.2,29.8,63.3,43.6,96.4,39.1,33.9-4.6,61.7-22.2,72.5-55.3.5-6,2.4-10.7,7.9-13.9l2.3-2c23.8-12.4,39.6-29.5,53.7-51.7,18.4-28.9,23.9-63.1,28.4-97.1,3.6-1.2,5.6,2.4,6.1,5.6l2.5,31.5c.6,3.6.3,6.8-1,9.8Z" fill="#060609"/><path d="M437.1,242.3c.8.7.8,1.7,0,3.1.3,2-1.4,9.1-3.7,6.4.1-4.1-.4-7.9-1.7-11.4l-1.5-.4c-2.8-24.2-6.2-48.5-10.3-72.7-5.8-29.6-22.7-58.1-39.7-82.5s-35.8-42-61.6-56.8C286.1,9.1,246.3.9,208.7,3.9c-37.2,2.9-73.9,18.1-104.2,39.9C60.4,75.5,38.6,120.8,26.7,172.5l-1.8,1.9c-9.1,39-7.8,80.1,0,119-2.4,3.5-4,.7-5-2.3-.6-3.9-1.4-7.7-2.3-11.4.5-.6,1.3-.8,1.9-1.3.6-2.1.6-4.3,0-6.7-2.4-12-2.6-24-2.7-36.7-.2-24.3,2.2-47.6,8.2-71.1,7.3-28.2,19.9-60.5,37.3-83.9,17-22.8,36.9-38.7,61.3-52.8,11.4-6.6,22.9-11.3,35.3-15.8C183.4,2.4,208.5-1.1,234.6.3s24.8,2,37.6,5.3c32.3,8.2,62.1,23.8,86,47.3s27.3,32.1,38.4,50.2c15,24.4,25.4,46.6,29.3,75.3l3.5,26,4.1,34.4c.2,1.5,2.3,3.6,3.6,3.6Z" fill="#270908"/><path d="M356.5,502.9h.7c-10.3,10.1-4.8,8.9-7.8,15.4s-4.3,11.9-8.5,16.9-1.1,3-2,4.2c-3.8,5.4-9.1,9.3-14.1,13.8-12,10.7-32.4,17.6-48.1,19.3-5,.5-9.5,1.1-14.5.8-10.8-.8-21.2-1.7-31.6-5.1s-23.3-7.4-34.8-17.2-13.3-12.1-17.4-20.4c-2.6-5.4-5.1-10.5-9-15.4-5.2-5.3-12.5-7.7-19.7-9.4s-4.6-3.1-7.3-3.5c-9.1-1.5-33.8-18.5-41.5-25.6-16.3-15.1-25.2-27.3-35.4-47s-2.2-5.5-4-8.2-11.6-27.2-13.2-32.5l-6.8-22c-.3-.9-1-2.4-2.2-1.9-.5,2.8-1.4,5.8-1.7,8.8l-.6,6.5c-.6,6.1,0,12.1.2,18.3l.4,28.3c0,1.2-1.1,2.4.5,3.4l-8.3-2.2c-7.1-1.9-10.5-10-10.6-17.3-.2-13.8,8-19.7,4.6-30.6l-5.9-18.9-6.5-18.3c-6-16.8-14.4-29.2-10.2-49.2s9-13.3,16.4-14.1c3.7.3,2.3,14.4,5.5,14s1.3-.9.9-1.8c-1-2.6-1.1-5.2-1.4-7.9l-1.7-11.5-2-18-.6-7.4c-.7-8.1,0-16.2.2-24.3l.5-14.9.6-6.7c.6-6,2-11.7,2.9-17.6s.7-6.5,2.3-9.1l1.1,2.3c-9.2,43.3-7.2,88.3,4.4,130.9,7.3,18.9,10.8,38.8,13.3,58.8,4.5,14.2,9.2,28.4,14.9,42.1,9.8,23.5,22.5,46.4,41.9,64.2,18,16.6,38.6,27.2,61.5,34.6,4.6,2.1,9,4.9,11.7,9.2,8.7,19.2,21.1,34.5,40.8,43.4,23.5,10.6,50.5,13.9,75.6,7.7,29-7.2,52.5-27.6,58.6-57.5,1.1-3,4.5-8.4,7.9-7.2Z" fill="#3c0d0a"/><path d="M437.1,242.3c14-.4,21.9,13.4,21.7,26.1,0,3.7,0,7.5-.9,11.1-1.7,7.8-3.8,15.4-6.1,23-2.5,8.2-4.4,19.9-3.5,28.5s.4,11.7,2,17.4l6.1,21.8c1.8,6.4,2.9,13,1.4,19.6s-6.9,5.6-8.7,9.2c-.4-6.5-.3-13-1-19.7s-1.5-12.5-1.7-19-.4-6.6-4.2-7.7c-.7,8.2-2.5,15.8-3.8,23.7s-1.6,12.9-3.5,19.2c-3.3,11.1-5.7,22.2-10.2,33s-7.1,14.8-9.6,18.5l-6.7,10c-2.6,4-5.1,8.1-8.3,11.6l-8.9,9.7c-7.8,8.5-11.5,9.2-20.2,15.8s-9.3,5.6-14,8.7h-.7c-.5-1.3.3-2.6,2.3-3.7,9-5.4,17.6-11.3,26-17.7,11.5-11.3,21-23.9,29.6-38,11.9-19.4,17-41.6,20.6-64.1,3-12.5,5.3-25.1,4.6-38l-3.1-43c-2.9-18.8-4.8-37.8-5.7-56.9l1-1.2c1,.7,1.6,2.2,1.7,3.6l.6,7.6c2.7-2.6.5-6.1,3-9.2Z" fill="#3b1410"/><path d="M19.4,278.4v-6.7c.4,1.9,2,4.9,0,6.7Z" fill="#3c0d0a"/><path d="M432.4,241.1c.9,2.2.8,4.9.9,7.3l.6,12c.3,6.4,1.2,12.3,1.9,18.8l.8,8c1,9.6,1.7,7.2,2,14.7s.5,6.6.7,9.8l.6,10.1,1.6,19.8c.5,6.9-.5,20.4-2,27.2l-1.7,7.7c-2.4,10.8-3.3,21.5-6.6,32-2.2,7.2-3.5,14.4-6.9,21l-3,5.7c-2.8,5.3-5.1,10.4-8.6,15.4s-7.9,12-12.4,17.6-5.4,4.8-7.4,7.9c-5,7.8-18.8,16-27.3,21.4l-5.2,3.3c-1.5,1-2.3,2.3-3.4,2.9-2.3,1.2-6.4,4.9-6.8,8.6-.8,7.2-4.3,13.4-7.6,19.5-7.9,14.5-18.2,23.1-32.4,31s-10.4,3.7-15.7,5.6c-17.7,6.3-40.8,5.6-58.7.6-20.3-5.7-28.3-8.7-44.1-22.7s-15.3-25.2-20.9-31.1c-7.4-7.8-23.3-10.1-33.7-15.5-5.5-2.9-10.7-5.5-15.8-8.9-7.6-5.1-15.1-9.9-21.5-16.4s-5.5-6.1-8.6-8.8-5.8-6.6-8.4-10.3-5.2-6.8-7.5-10.6l-6.2-10.3c-1.2-2-1.7-3.8-2.8-6l-6.3-12.1c-1.5-2.8-1.6-5.7-3.5-8.5s-1.8-5.4-2.9-7.8c-4.8-10.2-7.3-23.7-8.9-27-3.1-6.4-3.1-12.3-4-19.1l-1.3-10-2.2-9.1c-1-4.4-2.9-8.9-3.6-13.4s-2.5-7.4-3.9-11.4-5.8-24.1-6.3-27.2c-1.5-9.9-2.8-19.5-3.6-29.6s-.9-15.5-.4-29l.5-11.7.6-8.7c.8-10.7,3.9-19.1,4.6-28.6,3.2-13.6,7.9-32.4,13.7-45.4l7.6-17c.8-1.8,2-3.5,2.8-5.2,5.6-13,7.2-12.6,14.2-23.9s5.6-6.5,8.1-9.9c7.2-10,19-19.7,28.7-27.3s14.4-10.3,22.2-15.1c11.6-7.2,23.7-12.2,36.5-16.8s12-4.2,18.2-5.7l9.8-2.3c10.1-2.4,19.7-3.4,30-3.6s11.9-.5,18,0l16.6,1.4c3.3.3,6.3,1.3,9.6,1.9,9.2,1.7,18,3.9,26.9,7s9.1,2.9,13.6,5.1l8,3.9c15.5,7.6,26.1,14.2,39.3,25.5,2.4,2.1,4.5,3.7,6.6,6.2s5.7,4.8,7.9,8,4.7,4.2,6.4,6.8c2.5,4,8.9,11.3,12.6,16.8l6.2,9.2c4.8,7.1,9.1,14.4,13.2,22l4,7.4c3,5.5,5.3,11.2,8,16.8,6.7,14.2,8.6,31.2,11,45.6l2.3,14.2c.9,5.3,3.6,36.6,5.1,40.2Z" fill="#7d2d1b"/><path d="M36.3,419.8c0,2.9,1.1,5.3-.3,8-3.4-.5-7.2-1.1-9.8-3.6-13-12.9.9-31.9,0-38.7s-2.1-10.1-3.9-15-1.6-5.7-2.7-8.7l-6.6-18.2c-3.4-9.3-9.3-22-10.7-31.3s-1-20.9,4.9-26.5,6.6-4.1,10.6-4.5l4.6,19.1c.7,2.9,1.6,5.9,2.6,8.6,2.7,7,3.2,11.1,3.4,11.8,2.3,6.3,3.7,12.3,5.3,18.7s1.6,4.2,1.9,6.9l1.4,15.9c.2,2.8.5,5.3,0,8.2-1.5,7.4-1.4,14.7-1.3,22.2l.5,27.2Z" fill="#752719"/><path d="M444.5,320.3c.7-6.6-2.6-13.4-2.5-23.9,0-4.4.9-8.9-.9-13.8-.8-2.1-.8-5.1-1.1-7.5l-.7-7.3c-.2-2.6-.7-4.6-1.1-7l-1.5-8.4c-.5-2.9,1.1-6.1,1.2-9.1,3.5,0,6,1.9,8.8,3.5,5.2,3,7.7,8.1,9.1,13.8,4.2,18.1-4,29-5,39.4s-2.1,5.4-2.5,8.2l-1.9,13.5c-.1.8-2-.6-2-1.4Z" fill="#73281c"/><path d="M450.8,395.1c-2.2-1.1.3-3.3,0-4.5-1.1-4.4-1.7-8.8-2-13.4l-.7-12.4c0-1.6-2.8-19-.2-18.7l2.5,12.4c.3,1.5,2.2,2.1,2.4,4.3.2,3.4,5.1,16.9,3.7,23.4.2,3.8-1.7,7.3-5.7,8.8Z" fill="#6c2b1f"/><path d="M438.5,272.4c.3,5.3,3.3,19.1,0,18.6-2.4-7-2-21-3-25.8s-3.3-10.1-.1-9.5.9.7.8,1.4c-.1,2.5,1,4.5,1.5,6.7s.7,5.6.9,8.6Z" fill="#270908"/><path d="M441.3,305.6c.3,1.1,2.6,11.2-.4,11.1-2-5.6-2.3-11.5-1.1-17.2,2.3,1.9.9,4.2,1.5,6.2Z" fill="#270908"/><path d="M367.9,205.9c.2,0,.4,0,.6,0,7.3,5.6,14.8,11.6,20.8,18.5.2-.1.4-.2.5-.1,1.1.3,8.7,15.7,6.3,18.2s-8.3.5-10.7-.7c-11.9-8.4-25.1-16.8-40.2-17.8s-23.9-.9-35.3,2.3l-18.8,5.4c-6.2,2.3-11.1-3.7-8.4-9.3,0-2.6.7-4.7,2.2-6.4,13.1-9.2,29.4-13.4,45-16.4,13.5-2.6,26.4-2.1,38.1,6.2Z" fill="#030205"/><path d="M191.3,301.7c-9.8,16.6-5.8-7.5-24.2-11.5-5-1.3-10.6-1.4-15.7-.5-9.4.8-24.9,12-30,6.1-4-5.8-.6-16.7,3-22.9,8.7-15.2,27.7-20.8,44.5-18,26.6,3.9,35.6,24.7,22.6,46.6h0Z" fill="#6c2320"/><path d="M355.8,299.1l-.8-1.2c4.5-8.9.2-15.3-8-19.2,1.2.6,1.8,1.2.9,2.5-.4.8-1.3,1.1-2.5.9-.2,1.4-.7,1.9-2.1,1.1l-.7-.4c-.2-4.9-5.4-5.4-9.3-4.3-2.6-.9-5.3-.9-8.2,0-2.8-1.2-5-1.3-6.7-.2-1.1,0-2.1.6-3.2,1.5l-4.9.9-6.4,3.6c-.8,1.3-1.6,2.3-2.5,2.8-1.1-.2-1.6.3-2,1.3-1.4-1.5-2.4-3.9-3.9-5.3-3.9-1.8-4.9-4.9-4.4-8.9s2.1-4.6,3-6.9c2.6-6.6,7-9.2,12.7-12.7s11.3-3.4,17.9-3.1l13.2.7c3.8.2,6.1.6,9.4,2.1s4.8,1.8,7.1,3.7c4.5,3.6,9.7,6.8,12.2,12.5s.1,9.4-3.1,12.9c-8.2,8.9-2,11.7-7.7,15.8Z" fill="#6c2320"/><path d="M321.2,482.9c-5.1,6.9-13.2,10.7-20.7,13.8s-4.2,2.1-6.6,2.9c-9.8,2.9-19.7,3.5-30,4.2l-8.6.6c-5,.4-9.3-.7-14.2-1.8s-6.8-.3-9.8-1.7c-3.8-.7-14.6-4.4-17.7-6.2l-14.8-8.8c-3.6-2.1-7.1-4.3-10.4-6.8s-3.1-3.6-5.6-4.5-1.6-1.7-1.4-2.5,1.1-2,2.1-2.1c3.1-.3,5.7-2,8.5-2.6,4.9-1.2,8.5-4,13.1-5.9l10.6-4.6,6.5-2.2,10.9-3.2c3.1-.9,5.8-2,9.2-2.2,6.2-.3,12.2,1.2,18.2,2.9,10.5,2.8,19.1-9.6,33.9-5.8l17.7,4.5c2,.5,3.3,1.5,5.6,1.8,6.1.6,14.9,3.8,19.4,3.1s1.5.2,1.6.6.6,1.6.1,1.9c-3.4,2.5-4.2,6.4-6.5,9.5l-11.3,15.3Z" fill="#592517"/><path d="M278.1,539.8c-11.4,6.4-28.6-2.3-36.3-10.7s-5.9-9.5-1.2-9.6c8.3-.1,16.3.6,24.6-.1l6.8-.6c6.6-.6,12.9-1.5,19.3-2.5s2.5-1.1,3.4-.6c4.3,2.4.2,13.2-3,15.6s-8.9,5.8-13.7,8.4Z" fill="#050505"/><path d="M138.2,234.7c-5.2,1.8-11,3.2-15.4,6.3l-5.6,3.9c-2.8,2-6.2,4.2-9,6.1l-6.7,4.7c-4.4,3.1-7.8,8.7-14.1,9.1s-5.7-4.3-6-6.9c-.5-5.8,3.1-11.5,6.4-15.3l6.5-7.5c5.3-6.1,14.4-15.7,22.1-18.4s4.9-1.3,6.9-3.4c3.8,0,7.6-1.3,11.5-1.3h6.7s10,.5,10,.5c10.4.5,20.2,3,30.1,5.6,4.1,1.1,10.3,3.5,10.5,8.5s.1,3.2-1,4.5c-2.1,2.6-12.9,1.4-16.4,1.4s-4.8.4-7.3.1c-6.6-.6-23.6.2-29.2,2.1Z" fill="#401b13"/><path d="M171.6,284.7c-.4.6-1.9.7-2.7.9-2.8.5-7.7,1.1-12.9,2-6.4,1.1-12.3,2.2-17.4,4.8-11.2,5.5-6.2,13.2,6.8,16.3,4.4,1.1,8.9,1.6,13.6,1.7,7.7,0,15.8-.9,22.5-4.7,6.2-3.7,7.2-10.1,8.6-13.1,1.2-2.9,2.1-1.9,2.4.9,2,18.6-27.8,23.6-41.7,21.3-8.1-1-17.7-4.9-21.3-9.7-5.1-6.1-.8-13.4,6.1-16.2,7.7-3.6,18.1-4.5,26.6-4.7.7,0,1.4,0,2,0,4.7,0,7.4.3,7.5.7h0Z" fill="#4b1812"/><path d="M285.5,400.8c-.7-.4-3.9-6-3.2-7.8,1.5-4.1,13.8-8.9,21.4-3.7s1.5,6.4,0,8.9c3.2,4,11.4-4.9,11.8-6.3,1.1-4.5.7-10.3-1.1-14.6-1.4-3.2-4.4-5.6-6.6-8.1s-3.9-1.7-3.8-4.3c5.3.1,8.5,4.4,11.5,7.9s3.1,6,3.5,10.1c.5,5.3.9,10.9-3.9,14.5-15.6,11.8-12,1.8-19.9,4.1-3.1.9-6.8.8-9.6-.8Z" fill="#521a0e"/><path d="M282.6,222.4c1.1,8.7-3.2,2.4,4.2,9.1s10.2-2.5,11.2-2.7c3.4-.7,6.1-1.9,9.2-3.1,9.5-3.5,30.9-2.8,42-2.4s18.8,6.2,22.1,8.3l10.6,6.8c3.8,2.5,8,5.4,12.8,3.4s-4.6-15.1-3.7-12.8l-1.9-4.7c-.6-.8-.6-1.2,0-1.2,4.4,3.9,6.3,9.9,8,15.8s.8,4.3-1.9,4.9-8.3.5-11.4-1.7l-8.2-5.9c-6.4-4.5-13-7.3-20.5-9.5s-6.8-1.9-10.8-2.1l-10.6-.5c-4.7-.2-9.3.1-14,.5s-4,.9-6.1,2c-4.7,2.4-10.6,1.8-15.6,3.4l-5.9,1.9c-4.1,1.3-7.3,1.5-10.1-2.5s-1.3-6.1.2-8.7c.7,0,.5.7.2,1.3Z" fill="#401a13"/><path d="M215.3,403c-1.3-.4-1.9-1.6-2-3.4.7-.4,1.8-1.2,2.2-1.9,1.6-2.9,3-7.3,6.8-8.3s7.9-.5,11.6-.2,3.7,1.4,5.4,1.8c6,1.5,1.6,8.5,4.4,10.1s8.2,1.6,11.9,3,7,1.6,11.1,1,5.8,0,8.6-2.2,1.7,0,1.9.4c1.3,2.8-7.5,4.1-9.2,4.4-6.2,1.1-11.5.3-17.4-1.4s-6.9-.9-9-4.5c-5,2.8-19.7,1.9-23.8-.9-1.1.7-1.6,1.6-2.5,2Z" fill="#4c1c10"/><path d="M355.8,299.1c-1.2,1.9-3.1,3.7-5.2,4.5-8.3,3.5-16.4,4-25.4,2.8-18.5-2.6-18.6-10.3-25.8-17.9-.8-1.2-1.3-3.6.5-3.9.4.7,1.2,1.9,1.5,2.6.5-.2,1.2-.3,1.5.1,7.3,14.6,28,18.6,42.4,14.1,8.3-2.6,11.6-9.7,6.4-16.8-2.5-.8-3.8-1.9-3.9-3.4-.9-1.5-3.7-2-4.1-4,1.1-3,11.7,5.2,13.4,9s.5,9.8-1.4,12.9Z" fill="#43150f"/><path d="M213.3,399.6c1.7.2,2.1,1.9,2,3.4-5.2,3.3-10.4-1.1-13.7-2.7-12.7-6.3-14.8-23.5-7.4-31.1,1.4-1.4,8.3-7.8,9.4-4.3s-6.1,3.5-9,10.9c-1.9,4.9-.7,11.6,2.2,16.4s4.9,4,7.2,6,6.4,2.1,9.3,1.3Z" fill="#581206"/><path d="M367.9,205.9c-1.4,0-2.6-.8-3.9-1.6-4.3-2.8-9.1-3.4-14-4.7-9.2-2.5-25.2,2.3-24.3,2.3-6.1.4-11,1.8-16.6,4.1s-5.9.9-8.9,2.5l-5.7,3c-3.8,2-8.5,3.3-10.8,7.3s.2,3.1-1.1,3.6l-.2-1.3c-.3-2.4.5-5.1,3-6.5,3.7-2.1,7.1-4.7,11.1-6.2,7.6-2.9,14.9-6.2,22.9-6.9s3.2-1.4,4.8-1.8c7.1-1.5,14.3-2.1,21.7-2.3s19.4,4,22,8.5Z" fill="#3f1510"/><path d="M373.2,208.4c3.5,2.7,6.8,5.6,10,8.7.2.2.5.4.7.7,1.8,1.3,3.4,2.8,4.7,4.7.3.2.5.6.8.8v1.2c0,0-6.8-6-6.8-6l-6.9-6.3c.9.9-8.6-6-7.2-6.2,1.7.4,3.1,1.7,4.7,2.4Z" fill="#3f1510"/><path d="M383.2,217.1c-1.8.2-4.1-3.6-6.9-5.7s-2.6-1.6-3.1-3c4.1,1.8,7.2,5.3,10,8.7Z" fill="#401a13"/><path d="M388.5,222.4c-1.8-1.2-3.4-2.9-4.7-4.7,2.1.5,4.1,2.5,4.7,4.7Z" fill="#401a13"/><path d="M174,309.6c-2.8.4-5.6,2.5-8.8,2.4l-15.8-.6c-4.5-.2-7.7-3.4-11.3-5.1-1.6-.9-2.5-1.9-2.8-3-3.4-2.6-4.2-6.8,0-9,.7-1,1.8-1.7,2.7-2.6,2.1-1.2,4.2-2.2,6.5-3l.8.4c.5,4.9,2.4,10.3,6.7,13.1l1.7-.7c8.9,4.1,21.1.2,20.7-10.7l.9-1.2c-.4-.7-.2-3,.7-3.5,3.8.5,6.4,4.3,8.6,6.8s2.8,5.1.8,8.1-3.7,5.2-7,6.3-3.1,2-4.5,2.2Z" fill="#fdfcfc"/><path d="M175.4,289.8c4.6,28.9-57.3,5.5-16-5.5,5.8,2.7,14.1-2,16,5.5Z" fill="#381513"/><path d="M264,446.4c-24.3-4.8-21.7-3.3-42.3,4.3s-5.5-.2-11.9,2.7c-9.4,4.3-26.7,11.4-32.2,16.2s-3.9-.3-4.5-1.7c-2.2-5.1-2.4-10.2-1.7-15.6,2.1-17.5,3-12.2,17.9-18.1s-.9.6,2.7-1.1c9.9-4.6,17.6-5,27.1-10.4s9.3-4,14-4.7c12.6-2,22.3-1.9,27.7-1.5s7.4-.3,17.2-.5,9.2.4,18.1,1.4l9.3,2.1,23.6,3.6c9.7,3.9,2.9,0,11.1,4.7,13.9,7.9,14.6,39.9,5.9,32.2s-2.4-2.2-3.8-3.3c-5.6-4.3-13.2-6.2-19.8-8.3-3.4-2.2-7.3-3-11.2-4.2-10.9-3.4-3.4.5-14.6-2.3-13.1-3.4-20.8.5-32.6,4.7Z" fill="#070809"/><path d="M315.2,279.7c.9.2,0,2.5-.5,3.4l.9.5c-1.6,14.4,21,19.3,25.5,5.4l1.5-.6c-.2-2.1,0-3.9.6-5.3.8-.2.5-1.6,1.3-2.2s2.6-.1,3.4.3c1.6.9,5.3,1.9,6.4,4.1,1.5,3.4,1.7,8.6-.3,11.8-4.6,7.1-17.1,7.3-24.6,6.8s-17.4-2.8-23.6-10.8-3.6-4.3-4.3-6c-.2-2,.7-3.5,2.7-4.5,5.3-2.5,8.3-6,11.2-2.9Z" fill="#fefefe"/><path d="M343.1,280.8c-.9,9.6-4.5,14.7-11.9,14.2-6.4-.3-12.1-2.5-14.6-7.4-2.2-6,3.3-10.6,8.9-11.8,5.8-1.8,14-.2,17.5,4.8h0Z" fill="#361615"/><path d="M329.3,467c-2.4,2.6-4.5,5.5-6.4,8.8s-6.1,6.5-9.2,9.5c-4.5,4.3-9.6,6.6-15.2,9-3.6,1.5-6.8,3-10.8,3.8s-10.6,2.3-16.2,2.5c-9.6.3-13.8,1.9-23.4.5-11-1.6-21.9-3.9-32-8.6s-13.5-7.7-20.1-11.6c-2.7-1.7-2.9-3.1-.7-4.1,5.8,0,11.7.3,17.6.8,2.4,0,4.8.1,7.2,0,11.1-1.1,22.3-1.5,33.7-1.4,4.8.8,9.6,1.3,14.4,1.5,3.1,0,6.1-.9,9.3-2,4.5-1.6,9-1.7,13.2-2.7,2.4,0,4.6-.5,6.8-1.4l14.1-1.9,9.1-2.7,8.5-2.8c1.3.4,1.4,1.3.2,2.8Z" fill="#7c392f"/><path d="M233.9,473.9c-7.6.8-15,.3-22.6.6s-17.4-1.9-20.3-2.6c1.2-2.5,3.7-1.7,5.4-2.6l12.2-6.3c8-4.2,16.5-6.8,25.5-8.5,4.2-2.9,9.1-3.3,14.1-2.4s6.6.5,9.9,1.7,5.4,1.9,8.4,1l9.6-3c7.5-2.3,14.4-3.9,22.2-1.7s11.2,2.1,16.5,4.2,16.4,2.6,17,3.8c1.2,2.2-16.9,7.3-18.9,8-4,1.3-7.9,1.3-12.1,2-5.8,1-11.5,2.2-17.3,3.3l-11.2,2.2c-4.2.8-8,1.1-12.3.3-8.8-1.6-17.3-.7-26,.1Z" fill="#5e3228"/><path d="M212.7,477.5c-3.2,0-6.5.3-10-.1s-5.6-.8-7.9,1c-.4.6.7,1.9,1,2.4-2.5-1.5-5.5-2.8-7.6-5.5,0-.5.4-1.3.9-1.7,2.1,1.4,4.3,2.2,6.7,1.9s4.2,1.1,6.3,1.2l9.7.3c.5,0,1,0,.8.5Z" fill="#5e3228"/><path d="M268,477.6c-1.4,1.1-3.8,1-5.7.3s-4.2-.7-6.4-1c-6.3-.9-12.3-.8-18.6,0s-5.3,0-8.1.6-6.4,0-9.3.2c-.3-.4.8-.8,1.4-.7,4.9.7,22.2-2.5,33.2-1l13.5,1.8Z" fill="#5e3228"/><path d="M329.3,467c-.1-.4,0-1.1-.2-1.6s-9.3,1.8-8.5,1.5c1.6-1.5,4-1.4,6.2-2.5s3.5-2.8,4.8-1.8c1.2,1.7-1.3,3.3-2.3,4.3Z" fill="#5e3228"/><path d="M297.3,471.6c-1.8,1.7-4.5,1.3-6.8,1.4,2.2-.5,4.5-1,6.8-1.4Z" fill="#5e3228"/><path d="M110.1,247.7c-5,4.2-10.2,5.3-13,9.8s-5.6,5.5-8.9,5.6-5.2-4.2-5-7.2c.3-7,8.3-14.6,12.3-19.5,3.5-4.2,6.3-8.1,11-11.1,3.7-2.4,7.1-6.6,11.7-7.2s3.6-1.6,5.5-2.4c4.3-2,18.9-2.8,24.9-2.2l8,.8c7.2.7,14,2.4,21.1,4.2s13.1,4.2,12.7,9.1-3.1,3.7-5.7,3.6c-4.6-.2-8.7,0-13.2-.4-11.5-1.2-22.9,0-34.2,2.1s-3.5,1.6-5.2,2.2c-8.3,2.7-15.4,6.9-22.1,12.5Z" fill="#030204"/><path d="M149.6,300.4c-3.5-2.4-4.5-5.2-4.2-10.7v-.6s-.6,0-.6,0c-1.2.2-2.3.7-3.4,1.1-.6.3-1.2.5-1.8.7,1.9-1.4,4.8-2.6,5.8-2.6h0c.3,0,.5.6.6,1.1-.2.2-.5.6-.5,1.1-.3,2.2,1.9,6.8,4.1,9.8Z"/><path d="M145.5,287.9s0,0,0,0c-1.4,0-5.6,2-7.4,3.9,0,0,.1,0,.2,0,2.1,0,4.3-1.7,6.7-2.1-.4,6.7,1,9.7,7.1,12.7-2.8-2.1-7.9-11.7-5.5-12.7-.1-.5-.3-1.8-1.1-1.8h0Z" fill="#fff"/><path d="M135.4,294.4c-1,1.4-2.2,2.4-2.2,4.3s1.3,3.1,2.2,4.7c-.1.7-.6.6-1.3-.4-.4-1.4-2.6-2.3-2.3-4.7s1.4-3.9,3.7-3.9Z" fill="#9a8486"/><path d="M135.3,303.4c1.1.9,2.2,1.8,2.8,3-2-1-3.4-1.2-4.1-3.4.4.2.9.1,1.3.4Z" fill="#6c2320"/><path d="M302.6,395.1c-.5,2.8-14.1,9-16.9,1.9-.5-1.3-1.8-3.5-.4-4.8s3.2-.7,4.7-1.4c3.8-1.9,8.4-1.7,11.6,1.3s1.3,2.1,1.1,3Z" fill="#130704"/><path d="M239,397.8c-1.6,3.2-4.1,4.4-7.7,4s-7.9.5-11.1-2-1.1-6.9,1.3-8c5.7-2.5,16.4,0,17.9,2.6s.1,2.2-.5,3.4Z" fill="#090604"/><path d="M160.7,297.4c-7.1-.7-6.2-11.5.8-10.9,6.3,1.3,6.5,10.8-.6,10.9h-.2Z" fill="#070301"/><path d="M342.7,288.4c-1.1,6.3-6.8,10.3-13.5,10.2-6.6,0-12.7-3.6-14.6-10.3-.5-1.7.2-3.7,0-5.2,1.5-.2.8-4.1,2.9-4.5s1.4.5,1.5.9c.7,2.1-4.1,5.7-2.2,8.6,4,6.1,10.3,7.8,17.2,5.8,8.5-2.6,2.3-16.3,7.5-13.2l1,7.7Z" fill="#0f0606"/><path d="M326.6,290.1c-7.5-3.2-2.4-13,4.6-10.1,6,3.1,1.8,12-4.4,10.2h-.2Z" fill="#090201"/></svg>